<svg xmlns="http://www.w3.org/2000/svg" width="48" height="43" fill="none"><path fill="#000" d="M40.242 34.192c0 .566-.384.975-.934.975-.566 0-.933-.434-.933-.975 0-.542.367-.975.933-.975.55 0 .934.433.934.975m-25.9-.975c-.592 0-.934.433-.934.975 0 .541.342.975.934.975.541 0 .908-.409.908-.975-.008-.542-.367-.975-.908-.975m9.791-.025c-.45 0-.725.291-.791.725h1.591c-.075-.475-.366-.725-.8-.725m8.984.025c-.567 0-.909.433-.909.975 0 .541.342.975.909.975.566 0 .933-.409.933-.975 0-.542-.367-.975-.933-.975m8.825 2.175c0 .025.025.041.025.091 0 .025-.025.042-.025.092-.025.025-.025.042-.042.067-.025.025-.042.041-.092.041-.025.025-.041.025-.091.025-.025 0-.042 0-.092-.025-.025 0-.042-.025-.067-.041-.025-.025-.041-.042-.041-.067-.025-.042-.025-.067-.025-.092 0-.041 0-.066.025-.091 0-.042.025-.067.041-.092.025-.025.042-.025.067-.042.042-.025.067-.025.092-.025.041 0 .066 0 .091.025.042.025.067.025.092.042s.017.05.042.092m-.184.116c.042 0 .042-.025.067-.025.025-.025.025-.041.025-.066s0-.042-.025-.067c-.025 0-.042-.025-.092-.025H41.6v.292h.067V35.5h.025l.091.117h.067zM48 6.75v29.333c0 2.209-1.792 4-4 4H4c-2.208 0-4-1.791-4-4V6.75c0-2.208 1.792-4 4-4h40c2.208 0 4 1.792 4 4M5.333 18.383c0 6.375 5.175 11.542 11.542 11.542 2.267 0 4.492-.683 6.375-1.925-6.075-4.942-6.033-14.267 0-19.208a11.55 11.55 0 0 0-6.375-1.925c-6.367-.009-11.542 5.166-11.542 11.516M24 27.45c5.875-4.583 5.85-13.517 0-18.125-5.85 4.608-5.875 13.55 0 18.125m-11.858 6.358c0-.725-.475-1.2-1.225-1.225-.384 0-.792.117-1.067.542-.2-.342-.542-.542-1.017-.542-.316 0-.633.117-.883.45v-.366h-.683v3.058h.683c0-1.575-.208-2.517.75-2.517.85 0 .683.85.683 2.517h.659c0-1.525-.209-2.517.75-2.517.85 0 .683.834.683 2.517h.683v-1.917zm3.741-1.141h-.658v.366a1.2 1.2 0 0 0-.975-.45c-.858 0-1.517.684-1.517 1.609 0 .933.659 1.608 1.517 1.608.433 0 .75-.158.975-.45v.383h.658zm3.375 2.133c0-1.25-1.908-.683-1.908-1.267 0-.475.992-.4 1.542-.091l.275-.542c-.784-.508-2.517-.5-2.517.683 0 1.192 1.908.692 1.908 1.25 0 .525-1.125.484-1.725.067l-.291.525c.933.633 2.716.5 2.716-.625m2.95.775-.183-.567c-.317.175-1.017.367-1.017-.341v-1.384H22.1v-.616h-1.092v-.934h-.683v.934h-.633v.608h.633v1.392c0 1.466 1.442 1.2 1.883.908m1.109-1.117h2.291c0-1.35-.616-1.883-1.45-1.883-.883 0-1.516.658-1.516 1.608 0 1.709 1.883 1.992 2.816 1.184l-.316-.5c-.65.533-1.634.483-1.825-.409m4.925-1.791c-.384-.167-.967-.15-1.267.366v-.366h-.683v3.058h.683V34c0-.967.792-.842 1.067-.7zm.883 1.525c0-.95.967-1.259 1.725-.7l.317-.542c-.967-.758-2.725-.342-2.725 1.25 0 1.65 1.866 1.983 2.725 1.25l-.317-.542c-.767.542-1.725.217-1.725-.716m5.558-1.525H34v.366c-.692-.916-2.492-.4-2.492 1.159 0 1.6 1.867 2.058 2.492 1.158v.383h.683zm2.809 0c-.2-.1-.917-.242-1.267.366v-.366h-.658v3.058h.658V34c0-.917.75-.858 1.067-.7zm3.358-1.242h-.658v1.608c-.684-.908-2.492-.425-2.492 1.159 0 1.616 1.875 2.05 2.492 1.158v.383h.658zm.633-6.258v.383h.067v-.383h.158V25.1h-.383v.067zm.55 10.316c0-.041 0-.091-.025-.133-.025-.025-.041-.067-.066-.092s-.067-.041-.092-.066c-.042 0-.092-.025-.133-.025-.025 0-.067.025-.117.025a.4.4 0 0 0-.092.066c-.041.025-.066.067-.066.092-.025.042-.025.092-.025.133 0 .025 0 .067.025.117 0 .025.025.067.066.092a.3.3 0 0 0 .092.066c.042.025.092.025.117.025.041 0 .091 0 .133-.025.025-.025.067-.041.092-.066s.041-.067.066-.092c.025-.05.025-.092.025-.117m.267-10.391h-.117l-.133.291-.133-.291H41.8v.45h.067V25.2l.133.292h.092l.116-.292v.342h.092zm.367-6.709c0-6.35-5.175-11.525-11.542-11.525-2.267 0-4.492.684-6.375 1.925 6.008 4.942 6.1 14.292 0 19.209a11.6 11.6 0 0 0 6.375 1.925c6.367.008 11.542-5.159 11.542-11.534"/></svg>