<svg xmlns="http://www.w3.org/2000/svg" width="16" height="16" fill="none"><g clip-path="url('#clip0_9_1930')"><path fill="#000" d="M8 1c.444 0 .853.234 1.078.619l6.75 11.5A1.248 1.248 0 0 1 14.75 15H1.25c-.447 0-.863-.24-1.084-.628a1.25 1.25 0 0 1 .006-1.253l6.75-11.5A1.25 1.25 0 0 1 8 1m0 4a.75.75 0 0 0-.75.75v3.5c0 .416.334.75.75.75s.75-.334.75-.75v-3.5A.75.75 0 0 0 8 5m1 7a1 1 0 1 0-2 0 1 1 0 0 0 2 0"/></g><defs><clipPath id="clip0_9_1930"><path fill="#fff" d="M0 0h16v16H0z"/></clipPath></defs></svg>