<svg xmlns="http://www.w3.org/2000/svg" width="48" height="43" fill="none"><path fill="#000" d="M43.367 16.342c0-.659-.459-1.009-1.3-1.009h-.409v2.075h.392c.858 0 1.317-.366 1.317-1.066M44 2.667H4c-2.208 0-4 1.791-4 4V36c0 2.208 1.792 4 4 4h40c2.208 0 4-1.792 4-4V6.667c0-2.209-1.792-4-4-4m-3.675 11.575c1.883 0 4.408-.342 4.408 2.033 0 1.05-.55 1.725-1.558 1.933l2.15 2.867h-1.633l-1.85-2.733h-.184v2.733h-1.333zm-4.658.008h3.775v1.167H37v1.516h2.358v1.15H37v1.85h2.442v1.15h-3.775zm-5.725 0 1.825 4.6 1.85-4.6h1.458l-2.958 7.017H31.4l-2.917-7.017zM25.283 14A3.715 3.715 0 0 1 29 17.717a3.715 3.715 0 0 1-3.717 3.716 3.715 3.715 0 0 1-3.716-3.716A3.715 3.715 0 0 1 25.283 14m-4.108.508v1.584c-1.675-1.675-3.9-.392-3.9 1.583 0 2.083 2.292 3.208 3.9 1.6v1.583C18.7 22.05 15.9 20.383 15.9 17.675c0-2.6 2.758-4.417 5.275-3.167m-8.1 5.525c.95 0 1.867-1.275-.275-2.033-1.25-.458-1.683-.95-1.683-1.892 0-1.933 2.55-2.616 4.141-1.191l-.7.9c-.866-.967-2.075-.517-2.075.208 0 .367.225.575 1.025.858 1.517.55 1.967 1.042 1.967 2.134 0 2.458-3.233 3.116-4.717.941l.859-.825c.308.592.825.9 1.458.9m-8.458 1.05h-1.95V14.25h1.95c2.175 0 3.675 1.417 3.675 3.425 0 1.542-1.1 3.408-3.675 3.408m5.625 0H8.908V14.25h1.334zm35.091 15a1.26 1.26 0 0 1-1.25 1.25H10.667c15.8-2.966 31.891-11.6 34.666-13.333zM6.175 15.967c-.433-.409-.967-.55-1.825-.55H4v4.516h.35c.858 0 1.417-.166 1.825-.533a2.34 2.34 0 0 0 .742-1.725c0-.658-.267-1.292-.742-1.708"/></svg>