<svg xmlns="http://www.w3.org/2000/svg" width="48" height="43" fill="none"><path fill="#000" d="M0 36c0 2.208 1.792 4 4 4h40c2.208 0 4-1.792 4-4v-.092h-5.142L40.2 32.983l-2.658 2.925H20.567v-13.65h-5.484l6.809-15.391h6.55l2.341 5.266V6.867h8.1l1.409 3.966 1.416-3.966H48v-.2c0-2.209-1.792-4-4-4H4c-2.208 0-4 1.791-4 4zm36.7-1.808 3.517-3.859 3.5 3.859H48l-5.667-6.009L48 22.175h-4.217l-3.5 3.892-3.458-3.892h-4.283l5.625 6.042-5.617 5.966v-2.758h-6.917v-1.85h6.742v-2.692h-6.742v-1.866h6.917v-2.759H22.383v11.934zm8.025-6L48 31.683v-6.941zM41.7 20.525l3.075-8.383v8.383H48V8.583h-5.017L40.3 16.025l-2.658-7.442h-5.1v11.925L27.275 8.583h-4.267l-5.2 11.942h3.584l.991-2.392h5.492l1 2.392h6.892v-8.358l3.066 8.358zM23.5 15.45l1.625-3.908 1.617 3.908z"/></svg>