<svg xmlns="http://www.w3.org/2000/svg" width="48" height="43" fill="none"><path fill="#000" d="M39.175 19.275s.633 3.1.775 3.75h-2.783c.275-.742 1.333-3.625 1.333-3.625-.017.025.275-.758.442-1.242zM48 6.667V36c0 2.208-1.792 4-4 4H4c-2.208 0-4-1.792-4-4V6.667c0-2.209 1.792-4 4-4h40c2.208 0 4 1.791 4 4M12.708 27.6l5.267-12.933h-3.542L11.158 23.5l-.358-1.792-1.167-5.95c-.191-.825-.783-1.058-1.516-1.091H2.725l-.058.258c1.316.333 2.491.817 3.516 1.425L9.167 27.6zm7.867.017 2.1-12.95h-3.35l-2.092 12.95zm11.658-4.234c.017-1.475-.883-2.6-2.808-3.525-1.175-.591-1.892-.991-1.892-1.6.017-.55.609-1.116 1.925-1.116a5.74 5.74 0 0 1 2.492.491l.3.142.458-2.8a8.3 8.3 0 0 0-3-.55c-3.308 0-5.633 1.767-5.65 4.283-.025 1.859 1.667 2.892 2.934 3.517 1.291.633 1.733 1.05 1.733 1.608-.017.867-1.05 1.267-2.008 1.267-1.334 0-2.05-.208-3.142-.692l-.442-.208-.466 2.908c.783.359 2.233.675 3.733.692 3.517.008 5.808-1.733 5.833-4.417M44 27.617l-2.7-12.95h-2.592c-.8 0-1.408.233-1.75 1.075l-4.975 11.875H35.5s.575-1.6.7-1.942h4.3c.1.458.4 1.942.4 1.942z"/></svg>