<svg width="48" height="43" viewBox="0 0 48 43" fill="none" xmlns="http://www.w3.org/2000/svg">
<path d="M43.3667 16.3417C43.3667 15.6834 42.9083 15.3334 42.0667 15.3334H41.6583V17.4084H42.05C42.9083 17.4084 43.3667 17.0417 43.3667 16.3417ZM44 2.66669H4C1.79167 2.66669 0 4.45835 0 6.66669V36C0 38.2084 1.79167 40 4 40H44C46.2083 40 48 38.2084 48 36V6.66669C48 4.45835 46.2083 2.66669 44 2.66669ZM40.325 14.2417C42.2083 14.2417 44.7333 13.9 44.7333 16.275C44.7333 17.325 44.1833 18 43.175 18.2084L45.325 21.075H43.6917L41.8417 18.3417H41.6583V21.075H40.325V14.2417ZM35.6667 14.25H39.4417V15.4167H37V16.9334H39.3583V18.0834H37V19.9334H39.4417V21.0834H35.6667V14.25ZM29.9417 14.25L31.7667 18.85L33.6167 14.25H35.075L32.1167 21.2667H31.4L28.4833 14.25H29.9417ZM25.2833 14C27.3417 14 29 15.6667 29 17.7167C29 19.775 27.3333 21.4334 25.2833 21.4334C23.225 21.4334 21.5667 19.7667 21.5667 17.7167C21.5667 15.6584 23.2333 14 25.2833 14ZM21.175 14.5084V16.0917C19.5 14.4167 17.275 15.7 17.275 17.675C17.275 19.7584 19.5667 20.8834 21.175 19.275V20.8584C18.7 22.05 15.9 20.3834 15.9 17.675C15.9 15.075 18.6583 13.2584 21.175 14.5084ZM13.075 20.0334C14.025 20.0334 14.9417 18.7584 12.8 18C11.55 17.5417 11.1167 17.05 11.1167 16.1084C11.1167 14.175 13.6667 13.4917 15.2583 14.9167L14.5583 15.8167C13.6917 14.85 12.4833 15.3 12.4833 16.025C12.4833 16.3917 12.7083 16.6 13.5083 16.8834C15.025 17.4334 15.475 17.925 15.475 19.0167C15.475 21.475 12.2417 22.1334 10.7583 19.9584L11.6167 19.1334C11.925 19.725 12.4417 20.0334 13.075 20.0334ZM4.61667 21.0834H2.66667V14.25H4.61667C6.79167 14.25 8.29167 15.6667 8.29167 17.675C8.29167 19.2167 7.19167 21.0834 4.61667 21.0834ZM10.2417 21.0834H8.90833V14.25H10.2417V21.0834ZM45.3333 36.0834C45.3333 36.7667 44.7667 37.3334 44.0833 37.3334H10.6667C26.4667 34.3667 42.5583 25.7334 45.3333 24V36.0834ZM6.175 15.9667C5.74167 15.5584 5.20833 15.4167 4.35 15.4167H4V19.9334H4.35C5.20833 19.9334 5.76667 19.7667 6.175 19.4C6.65 18.9667 6.91667 18.3334 6.91667 17.675C6.91667 17.0167 6.65 16.3834 6.175 15.9667Z" fill="black"/>
</svg>
