<svg width="48" height="43" viewBox="0 0 48 43" fill="none" xmlns="http://www.w3.org/2000/svg">
<path d="M39.175 19.275C39.175 19.275 39.8083 22.375 39.95 23.025H37.1667C37.4417 22.2834 38.5 19.4 38.5 19.4C38.4833 19.425 38.775 18.6417 38.9417 18.1584L39.175 19.275ZM48 6.66669V36C48 38.2084 46.2083 40 44 40H4C1.79167 40 0 38.2084 0 36V6.66669C0 4.45835 1.79167 2.66669 4 2.66669H44C46.2083 2.66669 48 4.45835 48 6.66669ZM12.7083 27.6L17.975 14.6667H14.4333L11.1583 23.5L10.8 21.7084L9.63333 15.7584C9.44167 14.9334 8.85 14.7 8.11667 14.6667H2.725L2.66667 14.925C3.98333 15.2584 5.15833 15.7417 6.18333 16.35L9.16667 27.6H12.7083ZM20.575 27.6167L22.675 14.6667H19.325L17.2333 27.6167H20.575ZM32.2333 23.3834C32.25 21.9084 31.35 20.7834 29.425 19.8584C28.25 19.2667 27.5333 18.8667 27.5333 18.2584C27.55 17.7084 28.1417 17.1417 29.4583 17.1417C30.55 17.1167 31.35 17.375 31.95 17.6334L32.25 17.775L32.7083 14.975C32.05 14.7167 31 14.425 29.7083 14.425C26.4 14.425 24.075 16.1917 24.0583 18.7084C24.0333 20.5667 25.725 21.6 26.9917 22.225C28.2833 22.8584 28.725 23.275 28.725 23.8334C28.7083 24.7 27.675 25.1 26.7167 25.1C25.3833 25.1 24.6667 24.8917 23.575 24.4084L23.1333 24.2L22.6667 27.1084C23.45 27.4667 24.9 27.7834 26.4 27.8C29.9167 27.8084 32.2083 26.0667 32.2333 23.3834ZM44 27.6167L41.3 14.6667H38.7083C37.9083 14.6667 37.3 14.9 36.9583 15.7417L31.9833 27.6167H35.5C35.5 27.6167 36.075 26.0167 36.2 25.675H40.5C40.6 26.1334 40.9 27.6167 40.9 27.6167H44Z" fill="black"/>
</svg>
