<svg width="16" height="16" viewBox="0 0 16 16" fill="none" xmlns="http://www.w3.org/2000/svg">
<g clip-path="url(#clip0_9_1930)">
<path d="M8 1C8.44375 1 8.85312 1.23437 9.07812 1.61875L15.8281 13.1187C16.0562 13.5062 16.0562 13.9844 15.8344 14.3719C15.6125 14.7594 15.1969 15 14.75 15H1.25C0.803124 15 0.387499 14.7594 0.165624 14.3719C-0.0562514 13.9844 -0.0531264 13.5031 0.171874 13.1187L6.92187 1.61875C7.14687 1.23437 7.55625 1 8 1ZM8 5C7.58437 5 7.25 5.33437 7.25 5.75V9.25C7.25 9.66563 7.58437 10 8 10C8.41562 10 8.75 9.66563 8.75 9.25V5.75C8.75 5.33437 8.41562 5 8 5ZM9 12C9 11.7348 8.89464 11.4804 8.70711 11.2929C8.51957 11.1054 8.26522 11 8 11C7.73478 11 7.48043 11.1054 7.29289 11.2929C7.10536 11.4804 7 11.7348 7 12C7 12.2652 7.10536 12.5196 7.29289 12.7071C7.48043 12.8946 7.73478 13 8 13C8.26522 13 8.51957 12.8946 8.70711 12.7071C8.89464 12.5196 9 12.2652 9 12Z" fill="black"/>
</g>
<defs>
<clipPath id="clip0_9_1930">
<rect width="16" height="16" fill="white"/>
</clipPath>
</defs>
</svg>
