<svg width="48" height="43" viewBox="0 0 48 43" fill="none" xmlns="http://www.w3.org/2000/svg">
<path d="M0 36C0 38.2084 1.79167 40 4 40H44C46.2083 40 48 38.2084 48 36V35.9084H42.8583L40.2 32.9834L37.5417 35.9084H20.5667V22.2584H15.0833L21.8917 6.86669H28.4417L30.7833 12.1334V6.86669H38.8833L40.2917 10.8334L41.7083 6.86669H48V6.66669C48 4.45835 46.2083 2.66669 44 2.66669H4C1.79167 2.66669 0 4.45835 0 6.66669V36ZM36.7 34.1917L40.2167 30.3334L43.7167 34.1917H48L42.3333 28.1834L48 22.175H43.7833L40.2833 26.0667L36.825 22.175H32.5417L38.1667 28.2167L32.55 34.1834V31.425H25.6333V29.575H32.375V26.8834H25.6333V25.0167H32.55V22.2584H22.3833V34.1917H36.7ZM44.725 28.1917L48 31.6834V24.7417L44.725 28.1917ZM41.7 20.525L44.775 12.1417V20.525H48V8.58335H42.9833L40.3 16.025L37.6417 8.58335H32.5417V20.5084L27.275 8.58335H23.0083L17.8083 20.525H21.3917L22.3833 18.1334H27.875L28.875 20.525H35.7667V12.1667L38.8333 20.525H41.7ZM23.5 15.45L25.125 11.5417L26.7417 15.45H23.5Z" fill="black"/>
</svg>
